Patient4_TMGait_0pt6_02_left_09_GRF.mot
version=1
nRows=78
nColumns=19
inDegrees=no
endheader
time	F1x	F1y	F1z	M1x	M1y	M1z	F2x	F2y	F2z	M2x	M2y	M2z	EC1x	EC1y	EC1z	EC2x	EC2y	EC2z
10.95	-10.7043	1.5014	7.4039	-2.2121	-6.5771	7.0255	-20.8649	714.12	-42.0513	297.1088	55.1009	743.6811	-0.0592	0.0182	-0.0073	-0.0462	0.0165	0.9585
10.9627	-7.3324	1.6087	4.9637	-1.7046	-4.4125	5.4047	-23.8166	721.0736	-43.9656	299.4816	57.0329	748.0888	-0.0592	0.0182	-0.0073	-0.0462	0.0165	0.9585
10.9754	-4.4617	1.7254	2.9148	-1.2872	-2.6137	4.0445	-26.0085	729.707	-45.5928	302.549	58.4404	753.4761	-0.0592	0.0182	-0.0073	-0.0462	0.0165	0.9585
10.9881	-2.2509	1.8452	1.3538	-0.98043	-1.2516	3.0184	-27.2887	739.7963	-46.8648	306.2519	59.2564	759.7122	-0.0592	0.0182	-0.0073	-0.0462	0.0165	0.9585
11.0009	-0.72938	1.9688	0.27818	-0.78137	-0.32717	2.3451	-27.6597	750.9169	-47.7642	310.434	59.48	766.4755	-0.0592	0.0182	-0.0073	-0.0462	0.0165	0.9585
11.0136	0.20911	2.0831	-0.39436	-0.67216	0.23898	1.9616	-27.2322	762.4846	-48.3161	314.8549	59.1643	773.3045	-0.0592	0.0182	-0.0073	-0.0462	0.0165	0.9585
11.0263	0.67237	2.1612	-0.74516	-0.62188	0.51715	1.7842	-26.1447	773.7965	-48.5309	319.2153	58.3451	779.6142	-0.0592	0.0182	-0.0073	-0.0462	0.0165	0.9585
11.039	0.79339	2.1664	-0.882	-0.59534	0.60241	1.709	-24.5292	784.0603	-48.4542	323.1727	57.0898	784.7183	-0.0592	0.0182	-0.0073	-0.0462	0.0165	0.9585
11.0517	0.68077	2.049	-0.87009	-0.55252	0.54746	1.6114	-22.5069	792.459	-48.1271	326.3729	55.4598	787.8988	-0.0592	0.0182	-0.0073	-0.0462	0.0165	0.9585
11.0644	0.42612	1.758	-0.78595	-0.45638	0.41356	1.3762	-20.1282	798.2291	-47.618	328.4863	53.5226	788.4638	-0.0592	0.0182	-0.0073	-0.0462	0.0165	0.9585
11.0771	0.10158	1.2101	-0.65215	-0.26647	0.22178	0.87209	-17.4388	800.7538	-46.9746	329.2477	51.3186	785.8667	-0.0592	0.0182	-0.0073	-0.0462	0.0165	0.9585
11.0899	-0.23714	0.34689	-0.51062	0.045532	0.012515	0.015263	-14.4535	799.5998	-46.2618	328.4766	48.907	779.7268	-0.0592	0.0182	-0.0073	-0.0462	0.0165	0.9585
11.1026	-0.5308	-0.88342	-0.36203	0.50075	-0.19832	-1.2752	-11.2137	794.6127	-45.5339	326.1087	46.3581	769.949	-0.0592	0.0182	-0.0073	-0.0462	0.0165	0.9585
11.1153	-0.71416	-2.4566	-0.23193	1.0891	-0.36637	-2.978	-7.7554	785.9135	-44.8784	322.1996	43.7785	756.6811	-0.0592	0.0182	-0.0073	-0.0462	0.0165	0.9585
11.128	-0.6926	-4.2503	-0.1198	1.7606	-0.45053	-4.9532	-4.1585	773.9375	-44.3693	316.9355	41.2785	740.3654	-0.0592	0.0182	-0.0073	-0.0462	0.0165	0.9585
11.1407	-0.33494	-5.971	-0.060424	2.4014	-0.36172	-6.8648	-0.50776	759.4211	-44.0814	310.6286	38.9731	721.7095	-0.0592	0.0182	-0.0073	-0.0462	0.0165	0.9585
11.1534	0.50919	-7.0859	-0.084251	2.8084	-0.002405	-8.1331	3.1202	743.3551	-44.0465	303.7021	36.9319	701.6463	-0.0592	0.0182	-0.0073	-0.0462	0.0165	0.9585
11.1661	2.0242	-6.7782	-0.24426	2.6713	0.75668	-7.8601	6.6638	726.9228	-44.2596	296.6606	35.1838	681.284	-0.0592	0.0182	-0.0073	-0.0462	0.0165	0.9585
11.1789	4.3612	-3.9057	-0.58636	1.5556	2.0346	-4.7648	10.1104	711.3924	-44.6636	290.0461	33.696	661.7914	-0.0592	0.0182	-0.0073	-0.0462	0.0165	0.9585
11.1916	7.6191	2.9632	-1.165	-1.0834	3.9309	2.7528	13.4486	698.0157	-45.1598	284.3879	32.3897	644.3347	-0.0592	0.0182	-0.0073	-0.0462	0.0165	0.9585
11.2043	11.7148	15.4498	-2.0243	-5.8604	6.4644	16.5217	16.7118	687.8329	-45.6188	280.1223	31.139	629.8734	-0.0592	0.0182	-0.0073	-0.0462	0.0165	0.9585
11.217	16.2987	35.0908	-3.1828	-13.3555	9.5161	38.2742	19.9203	681.4823	-45.891	277.5114	29.797	619.0213	-0.0592	0.0182	-0.0073	-0.0462	0.0165	0.9585
11.2297	20.5642	62.8726	-4.5944	-23.9399	12.7227	69.1587	23.1224	678.9299	-45.8313	276.5358	28.214	611.7808	-0.0592	0.0182	-0.0073	-0.0462	0.0165	0.9585
11.2424	23.1747	98.5561	-6.1005	-37.5181	15.3949	108.9731	26.3447	679.2795	-45.3066	276.8141	26.2569	607.3853	-0.0592	0.0182	-0.0073	-0.0462	0.0165	0.9585
11.2551	22.5311	140.0872	-7.4171	-53.3021	16.6104	155.5083	29.5864	680.7731	-44.2214	277.6064	23.8361	604.2976	-0.0592	0.0182	-0.0073	-0.0462	0.0165	0.9585
11.2679	17.8421	183.5459	-8.1096	-69.7805	15.588	204.4365	32.7926	681.0954	-42.5039	277.9416	20.9105	600.4978	-0.0592	0.0182	-0.0073	-0.0462	0.0165	0.9585
11.2806	10.379	223.554	-7.5376	-84.8836	12.1097	249.6923	35.8366	677.809	-40.1284	276.798	17.5142	593.8865	-0.0592	0.0182	-0.0073	-0.0462	0.0165	0.9585
11.2933	2.4024	255.2507	-5.4432	-96.7705	6.7886	285.5865	38.5942	668.7773	-37.1525	273.2822	13.7655	582.6217	-0.0592	0.0182	-0.0073	-0.0462	0.0165	0.9585
11.306	-4.6636	276.8993	-2.4215	-104.821	0.84148	309.9453	40.9253	652.5654	-33.7069	266.7864	9.8436	565.4907	-0.0592	0.0182	-0.0073	-0.0462	0.0165	0.9585
11.3187	-10.2846	290.3746	0.81257	-109.7886	-4.7282	324.7754	42.7657	628.5432	-30.0028	257.0385	5.9618	541.9681	-0.0592	0.0182	-0.0073	-0.0462	0.0165	0.9585
11.3314	-14.468	299.4827	3.548	-113.1616	-9.1537	334.3009	44.0532	596.8704	-26.2218	244.0991	2.2975	512.2428	-0.0592	0.0182	-0.0073	-0.0462	0.0165	0.9585
11.3441	-17.5026	308.3944	5.4634	-116.541	-12.1899	343.1534	44.7494	558.2789	-22.4586	228.2813	-1.0524	476.9818	-0.0592	0.0182	-0.0073	-0.0462	0.0165	0.9585
11.3569	-19.5987	320.6447	6.4417	-121.2683	-13.8187	355.1423	44.7692	513.9176	-18.7062	210.0746	-4.0657	437.216	-0.0592	0.0182	-0.0073	-0.0462	0.0165	0.9585
11.3696	-20.9535	338.7669	6.7289	-128.2758	-14.3902	373.004	43.9991	465.136	-14.9701	190.0533	-6.6964	394.1335	-0.0592	0.0182	-0.0073	-0.0462	0.0165	0.9585
11.3823	-21.6382	364.2533	6.6614	-138.0888	-14.3219	398.2739	42.2879	413.3877	-11.3098	168.8272	-8.8426	348.9977	-0.0592	0.0182	-0.0073	-0.0462	0.0165	0.9585
11.395	-21.7675	397.5306	6.8271	-150.8043	-14.2816	431.3749	39.5248	360.1825	-7.8837	147.019	-10.3434	303.0983	-0.0592	0.0182	-0.0073	-0.0462	0.0165	0.9585
11.4077	-21.4505	437.8734	7.7662	-166.093	-14.8876	471.439	35.7129	307.062	-4.8793	125.2612	-11.0641	257.7001	-0.0592	0.0182	-0.0073	-0.0462	0.0165	0.9585
11.4204	-20.9103	483.7724	9.9806	-183.3375	-16.7309	516.8259	30.9763	255.6158	-2.4672	104.2011	-10.9374	214.0872	-0.0592	0.0182	-0.0073	-0.0462	0.0165	0.9585
11.4331	-20.2838	533.4741	13.6042	-201.8596	-19.9996	565.6358	25.6294	207.3773	-0.7272	84.4688	-10.0377	173.4479	-0.0592	0.0182	-0.0073	-0.0462	0.0165	0.9585
11.4459	-19.6108	585.2465	18.4704	-221.0216	-24.5243	616.0216	20.045	163.7134	0.36197	66.6219	-8.5463	136.8467	-0.0592	0.0182	-0.0073	-0.0462	0.0165	0.9585
11.4586	-18.8278	637.281	24.0624	-240.1843	-29.7449	666.0701	14.6597	125.5796	0.91117	51.0527	-6.7305	104.9786	-0.0592	0.0182	-0.0073	-0.0462	0.0165	0.9585
11.4713	-17.7939	687.5123	29.8519	-258.6195	-35.0535	713.6314	9.803	93.4057	1.0705	37.9339	-4.8475	78.1494	-0.0592	0.0182	-0.0073	-0.0462	0.0165	0.9585
11.484	-16.3803	733.6673	35.3574	-275.5153	-39.8971	756.3946	5.7196	67.0724	0.99145	27.2153	-3.1106	56.217	-0.0592	0.0182	-0.0073	-0.0462	0.0165	0.9585
11.4967	-14.4811	773.46	40.3004	-290.04	-43.9387	792.0743	2.506	46.1105	0.79352	18.699	-1.6453	38.7811	-0.0592	0.0182	-0.0073	-0.0462	0.0165	0.9585
11.5094	-12.0846	804.9238	44.5068	-301.4703	-46.988	818.7997	0.16343	29.8897	0.5615	12.1216	-0.51285	25.3131	-0.0592	0.0182	-0.0073	-0.0462	0.0165	0.9585
11.5221	-9.2198	826.71	47.9053	-309.3092	-48.983	835.3855	-1.3459	17.7651	0.33933	7.2146	0.27808	15.2716	-0.0592	0.0182	-0.0073	-0.0462	0.0165	0.9585
11.5349	-5.9715	838.3217	50.4689	-313.3687	-49.9299	841.5451	-2.1077	9.1574	0.15457	3.7365	0.74289	8.1763	-0.0592	0.0182	-0.0073	-0.0462	0.0165	0.9585
11.5476	-2.4184	840.0864	52.2358	-313.7616	-49.906	837.8138	-2.2556	3.5064	0.016212	1.4581	0.93309	3.5266	-0.0592	0.0182	-0.0073	-0.0462	0.0165	0.9585
11.5603	1.3402	833.0259	53.3094	-310.8536	-49.0649	825.4107	-2.0584	0.24871	-0.056327	0.14296	0.9319	0.85836	-0.0592	0.0182	-0.0073	-0.0462	0.0165	0.9585
11.573	5.1725	818.7068	53.8187	-305.2133	-47.6024	806.0646	-1.6818	-1.2741	-0.080598	-0.47427	0.81902	-0.38568	-0.0592	0.0182	-0.0073	-0.0462	0.0165	0.9585
11.5857	8.9294	799.0965	53.903	-297.5611	-45.7326	781.8526	-1.2769	-1.6361	-0.065322	-0.62808	0.65064	-0.6569	-0.0592	0.0182	-0.0073	-0.0462	0.0165	0.9585
11.5984	12.4594	776.4444	53.6734	-288.7255	-43.6434	755.0778	-0.89739	-1.3238	-0.032715	-0.51113	0.47004	-0.37482	-0.0592	0.0182	-0.0073	-0.0462	0.0165	0.9585
11.6111	15.6309	753.0389	53.2616	-279.552	-41.5276	728.0114	-0.59788	-0.67416	0.0063597	-0.25844	0.31017	0.18971	-0.0592	0.0182	-0.0073	-0.0462	0.0165	0.9585
11.6239	18.3311	730.983	52.7752	-270.8206	-39.5435	702.6974	-0.3805	0.076587	0.039319	0.037446	0.18959	0.83727	-0.0592	0.0182	-0.0073	-0.0462	0.0165	0.9585
11.6366	20.4709	711.9953	52.3188	-263.1721	-37.8268	680.7693	-0.24334	0.7835	0.058533	0.32188	0.11471	1.4445	-0.0592	0.0182	-0.0073	-0.0462	0.0165	0.9585
11.6493	22.0067	697.3155	51.948	-257.0695	-36.4485	663.3645	-0.1853	1.3811	0.055775	0.56912	0.089731	1.9581	-0.0592	0.0182	-0.0073	-0.0462	0.0165	0.9585
11.662	22.9341	687.6201	51.7077	-252.7647	-35.4452	651.0528	-0.17511	1.8274	0.032513	0.7636	0.10183	2.3249	-0.0592	0.0182	-0.0073	-0.0462	0.0165	0.9585
11.6747	23.3321	683.0368	51.6115	-250.2984	-34.7957	643.8592	-0.22088	2.1202	-0.0030709	0.89926	0.14086	2.5489	-0.0592	0.0182	-0.0073	-0.0462	0.0165	0.9585
11.6874	23.3191	683.1801	51.6665	-249.519	-34.4596	641.3267	-0.28831	2.2335	-0.042846	0.96408	0.19105	2.5882	-0.0592	0.0182	-0.0073	-0.0462	0.0165	0.9585
11.7001	23.0618	687.2844	51.868	-250.1341	-34.3744	642.6371	-0.39649	2.1597	-0.080942	0.94763	0.25525	2.4443	-0.0592	0.0182	-0.0073	-0.0462	0.0165	0.9585
11.7129	22.7326	694.3777	52.2139	-251.7772	-34.4782	646.7866	-0.51884	1.8389	-0.11229	0.82414	0.32244	2.0398	-0.0592	0.0182	-0.0073	-0.0462	0.0165	0.9585
11.7256	22.5154	703.4441	52.7024	-254.0684	-34.7075	652.7356	-0.65686	1.2096	-0.14264	0.56294	0.39564	1.3132	-0.0592	0.0182	-0.0073	-0.0462	0.0165	0.9585
11.7383	22.5936	713.5414	53.3325	-256.6593	-34.9954	659.5002	-0.78382	0.18652	-0.16922	0.128	0.46124	0.15849	-0.0592	0.0182	-0.0073	-0.0462	0.0165	0.9585
11.751	23.1295	723.8754	54.104	-259.2602	-35.2811	666.2517	-0.87246	-1.2966	-0.19819	-0.50885	0.51286	-1.5018	-0.0592	0.0182	-0.0073	-0.0462	0.0165	0.9585
11.7637	24.2725	733.8002	55.0207	-261.6457	-35.5102	672.3253	-0.87802	-3.2516	-0.22384	-1.351	0.52747	-3.6923	-0.0592	0.0182	-0.0073	-0.0462	0.0165	0.9585
11.7764	26.1103	742.863	56.0746	-263.6659	-35.6347	677.2798	-0.71842	-5.5914	-0.24778	-2.3578	0.47725	-6.335	-0.0592	0.0182	-0.0073	-0.0462	0.0165	0.9585
11.7891	28.6933	750.8075	57.2262	-265.2504	-35.5946	680.8652	-0.31998	-8.0311	-0.25562	-3.408	0.31777	-9.0972	-0.0592	0.0182	-0.0073	-0.0462	0.0165	0.9585
11.8019	32.0011	757.5559	58.4097	-266.3983	-35.3352	683.0365	0.43412	-10.0385	-0.23573	-4.2713	-0.011372	-11.3759	-0.0592	0.0182	-0.0073	-0.0462	0.0165	0.9585
11.8146	35.9691	763.1207	59.5438	-267.1457	-34.8035	683.8517	1.6201	-10.713	-0.14745	-4.5643	-0.59343	-12.1284	-0.0592	0.0182	-0.0073	-0.0462	0.0165	0.9585
11.8273	40.4705	767.486	60.5579	-267.5195	-33.9761	683.3608	3.3133	-8.7511	0.047509	-3.7271	-1.4981	-9.8616	-0.0592	0.0182	-0.0073	-0.0462	0.0165	0.9585
11.84	45.3329	770.528	61.3666	-267.5077	-32.8341	681.542	5.4886	-2.3906	0.39705	-1.0075	-2.7626	-2.5382	-0.0592	0.0182	-0.0073	-0.0462	0.0165	0.9585
11.8527	50.3636	771.9295	61.8955	-267.0306	-31.3788	678.2126	8.0037	10.4774	0.94742	4.4976	-4.368	12.2675	-0.0592	0.0182	-0.0073	-0.0462	0.0165	0.9585
11.8654	55.3391	771.1062	62.0309	-265.9121	-29.5937	672.9739	10.4818	32.0803	1.7322	13.74	-6.1869	37.1208	-0.0592	0.0182	-0.0073	-0.0462	0.0165	0.9585
11.8781	60.0545	767.0538	61.6358	-263.8259	-27.4524	665.0624	12.2426	64.2675	2.7507	27.5095	-7.9267	74.1555	-0.0592	0.0182	-0.0073	-0.0462	0.0165	0.9585
11.8909	64.2876	758.3431	60.5061	-260.2939	-24.8862	653.3852	12.1729	107.7469	3.9305	46.112	-9.0383	124.1906	-0.0592	0.0182	-0.0073	-0.0462	0.0165	0.9585
11.9036	67.8183	743.1771	58.4344	-254.7073	-21.8298	636.5362	8.7305	161.0761	5.1568	68.9345	-8.7544	185.5878	-0.0592	0.0182	-0.0073	-0.0462	0.0165	0.9585
11.9163	70.3611	719.6221	55.2254	-246.4021	-18.2493	613.0205	0.96017	219.8407	6.1064	94.0901	-6.3279	253.2472	-0.0592	0.0182	-0.0073	-0.0462	0.0165	0.9585
11.929	71.5968	685.9937	50.7974	-234.7893	-14.2155	581.5297	-9.9444	277.4136	5.9301	118.7047	-1.333	319.4686	-0.0592	0.0182	-0.0073	-0.0462	0.0165	0.9585
